<?xml version="1.0" encoding="iso-8859-1"?>
<!-- Uploaded to: SVG Repo, www.svgrepo.com, Generator: SVG Repo Mixer Tools -->
<svg height="800px" width="800px" version="1.1" id="Layer_1" xmlns="http://www.w3.org/2000/svg" xmlns:xlink="http://www.w3.org/1999/xlink" 
	 viewBox="0 0 512 512" xml:space="preserve">
<g transform="translate(1 1)">
	<path style="fill:#0096E6;" d="M85.78,415.542c-5.207,0-8.678-3.471-8.678-8.678V129.169h78.102c5.207,0,8.678,3.471,8.678,8.678
		s-3.471,8.678-8.678,8.678H94.458v190.915h399.186V146.525h-60.746c-5.207,0-8.678-3.471-8.678-8.678s3.471-8.678,8.678-8.678H511
		v225.627H94.458v52.068C94.458,412.071,90.986,415.542,85.78,415.542z"/>
	<path style="fill:#FFFFFF;" d="M207.271,450.254c0,19.092-15.62,34.712-34.712,34.712s-34.712-15.62-34.712-34.712
		s15.62-34.712,34.712-34.712S207.271,431.163,207.271,450.254L207.271,450.254z"/>
	<path style="fill:#0096E6;" d="M172.559,493.644c-24.298,0-43.39-19.092-43.39-43.39s19.092-43.39,43.39-43.39
		s43.39,19.092,43.39,43.39S196.858,493.644,172.559,493.644z M172.559,424.22c-14.753,0-26.034,11.281-26.034,26.034
		c0,14.753,11.281,26.034,26.034,26.034s26.034-11.281,26.034-26.034C198.593,435.502,187.312,424.22,172.559,424.22z"/>
	<path style="fill:#FFFFFF;" d="M415.542,450.254c0,19.092-15.62,34.712-34.712,34.712s-34.712-15.62-34.712-34.712
		s15.62-34.712,34.712-34.712S415.542,431.163,415.542,450.254L415.542,450.254z"/>
	<g>
		<path style="fill:#0096E6;" d="M380.831,493.644c-24.298,0-43.39-19.092-43.39-43.39s19.092-43.39,43.39-43.39
			s43.39,19.092,43.39,43.39S405.129,493.644,380.831,493.644z M380.831,424.22c-14.753,0-26.034,11.281-26.034,26.034
			c0,14.753,11.281,26.034,26.034,26.034c14.753,0,26.034-11.281,26.034-26.034C406.864,435.502,395.583,424.22,380.831,424.22z"/>
		<path style="fill:#0096E6;" d="M458.932,415.542H85.78c-5.207,0-8.678-3.471-8.678-8.678s3.471-8.678,8.678-8.678h373.153
			c5.207,0,8.678,3.471,8.678,8.678S464.139,415.542,458.932,415.542z M502.322,354.797c-5.207,0-8.678-3.471-8.678-8.678V137.847
			c0-5.207,3.471-8.678,8.678-8.678c5.207,0,8.678,3.471,8.678,8.678v208.271C511,351.325,507.529,354.797,502.322,354.797z"/>
	</g>
	<path style="fill:#FFFFFF;" d="M59.746,59.746c0,14.753-11.281,26.034-26.034,26.034S7.678,74.498,7.678,59.746
		s11.281-26.034,26.034-26.034S59.746,44.993,59.746,59.746L59.746,59.746z"/>
	<path style="fill:#0096E6;" d="M33.712,94.458C14.62,94.458-1,78.837-1,59.746s15.62-34.712,34.712-34.712
		s34.712,15.62,34.712,34.712S52.803,94.458,33.712,94.458z M33.712,42.39c-9.546,0-17.356,7.81-17.356,17.356
		s7.81,17.356,17.356,17.356s17.356-7.81,17.356-17.356S43.258,42.39,33.712,42.39z"/>
	<path style="fill:#D0E8F9;" d="M181.237,137.847c0-62.481,50.332-112.814,112.814-112.814s112.814,50.332,112.814,112.814
		s-50.332,112.814-112.814,112.814S181.237,200.329,181.237,137.847L181.237,137.847z"/>
	<g>
		<path style="fill:#0096E6;" d="M294.051,259.339c-66.82,0-121.492-54.671-121.492-121.492S227.23,16.356,294.051,16.356
			s121.492,54.671,121.492,121.492S360.871,259.339,294.051,259.339z M294.051,33.712c-57.275,0-104.136,46.861-104.136,104.136
			s46.861,104.136,104.136,104.136s104.136-46.861,104.136-104.136S351.325,33.712,294.051,33.712z"/>
		<path style="fill:#0096E6;" d="M294.051,215.949c-5.207,0-8.678-3.471-8.678-8.678V89.251l-45.993,45.993
			c-3.471,3.471-8.678,3.471-12.149,0c-3.471-3.471-3.471-8.678,0-12.149l60.746-60.746c0.868-0.868,1.736-1.736,2.603-1.736
			c0.868-0.868,2.603-0.868,3.471-0.868l0,0l0,0l0,0c0.868,0,2.603,0,3.471,0.868c0.868,0,1.736,0.868,2.603,1.736l60.746,60.746
			c3.471,3.471,3.471,8.678,0,12.149c-3.471,3.471-8.678,3.471-12.149,0l-45.993-45.993v118.02
			C302.729,212.478,299.258,215.949,294.051,215.949z M85.78,146.525c-5.207,0-8.678-3.471-8.678-8.678V68.424H42.39
			c-5.207,0-8.678-3.471-8.678-8.678s3.471-8.678,8.678-8.678h43.39c5.207,0,8.678,3.471,8.678,8.678v78.102
			C94.458,143.054,90.986,146.525,85.78,146.525z"/>
	</g>
</g>
</svg>