<?xml version="1.0" encoding="iso-8859-1"?>
<!-- Uploaded to: SVG Repo, www.svgrepo.com, Generator: SVG Repo Mixer Tools -->
<svg height="800px" width="800px" version="1.1" id="Layer_1" xmlns="http://www.w3.org/2000/svg" xmlns:xlink="http://www.w3.org/1999/xlink" 
	 viewBox="0 0 511.991 511.991" xml:space="preserve">
<circle style="fill:#E84F4F;" cx="255.995" cy="255.995" r="255.995"/>
<path style="fill:#D14747;" d="M508.618,298.279C490.86,405.245,406.725,489.803,299.971,508.194l-76.737-76.102l12.683-43.97
	l-22.196-9.935l-5.707-30.653c-41.011-25.156-84.558-121.552-1.057-177.783l4.439-37.417l13.106-0.423L289.4,79.485l219.428,218.371
	L508.618,298.279z"/>
<path style="fill:#FFD630;" d="M255.999,150.514c13.317,0,26.002,2.537,37.84,6.976c1.903-0.845,2.748-2.114,2.537-3.593
	l-2.114-12.261c-0.423-2.325-7.187-4.017-10.358-4.017h-27.904h-32.343c-3.171,0-5.496,1.691-5.919,4.017l-2.114,12.261
	c-0.211,1.48,0.634,2.748,2.537,3.593C229.787,153.05,242.682,150.514,255.999,150.514z M308.214,164.466
	c31.498,18.18,52.849,52.215,52.849,91.112c0,39.108-21.351,73.143-52.849,91.112c2.325,1.48,3.382,3.806,2.959,6.342l-4.439,23.465
	c-0.845,4.228-3.594,7.61-8.033,7.61h-42.702h-42.702c-4.439,0-7.399-3.593-8.033-7.61l-4.439-23.465
	c-0.423-2.537,0.634-4.862,2.959-6.342c-31.498-18.18-52.849-52.215-52.849-91.112c0-39.108,21.351-73.143,52.849-91.112
	c-2.325-1.48-3.382-3.806-2.959-6.342l4.439-23.465c0.845-4.228,3.593-7.61,8.033-7.61h42.702h42.702
	c4.439,0,7.187,3.593,8.033,7.61l4.439,23.465C311.596,160.66,310.54,162.986,308.214,164.466z M293.84,353.665
	c-11.838,4.439-24.522,6.976-37.84,6.976c-13.317,0-26.002-2.537-37.84-6.976c-1.903,0.845-2.748,2.114-2.537,3.594l2.114,12.261
	c0.423,2.325,7.187,4.017,10.358,4.017H256h27.904c3.171,0,9.935-1.691,10.358-4.017l2.114-12.261
	C296.588,355.779,295.742,354.51,293.84,353.665z M255.999,163.197c51.158,0,92.591,41.433,92.591,92.591
	s-41.433,92.591-92.591,92.591s-92.591-41.433-92.591-92.591S204.842,163.197,255.999,163.197z"/>
<path style="fill:#F2BC24;" d="M255.999,150.514c13.317,0,26.002,2.537,37.84,6.976c1.903-0.845,2.748-2.114,2.537-3.593
	l-2.114-12.261c-0.423-2.325-7.187-4.017-10.358-4.017h-27.904v-10.781h42.702c4.439,0,7.187,3.593,8.033,7.61l4.439,23.465
	c0.423,2.537-0.634,4.862-2.959,6.342c31.498,18.18,52.849,52.215,52.849,91.112c0,39.108-21.351,73.143-52.849,91.112
	c2.325,1.48,3.382,3.806,2.959,6.342l-4.439,23.465c-0.845,4.228-3.594,7.61-8.033,7.61h-42.702v-10.781h27.904
	c3.171,0,9.935-1.691,10.358-4.017l2.114-12.261c0.211-1.48-0.634-2.748-2.537-3.593c-11.838,4.439-24.522,6.976-37.84,6.976
	v-12.472c51.158,0,92.591-41.433,92.591-92.591s-41.433-92.591-92.591-92.591V150.09L255.999,150.514L255.999,150.514z"/>
<circle style="fill:#00CC96;" cx="255.995" cy="255.575" r="92.588"/>
<path style="fill:#F0C000;" d="M255.999,163.197c51.158,0,92.591,41.433,92.591,92.591s-41.433,92.591-92.591,92.591V163.408
	L255.999,163.197L255.999,163.197z"/>
<path style="fill:#07B587;" d="M255.999,163.197c51.158,0,92.591,41.433,92.591,92.591s-41.433,92.591-92.591,92.591V163.408
	L255.999,163.197L255.999,163.197z"/>
<path style="fill:#666666;" d="M227.462,78.216h57.077c3.593,0,6.554,2.959,6.554,6.554v54.117c0,3.593-2.959,6.554-6.554,6.554
	h-57.077c-3.593,0-6.554-2.959-6.554-6.554V84.77C220.908,81.175,223.867,78.216,227.462,78.216z M227.462,433.995h57.077
	c3.593,0,6.554-2.959,6.554-6.554v-54.117c0-3.594-2.959-6.554-6.554-6.554h-57.077c-3.593,0-6.554,2.959-6.554,6.554v54.117
	C220.908,431.036,223.867,433.995,227.462,433.995z"/>
<path style="fill:#4D4D4D;" d="M255.999,78.216h28.539c3.593,0,6.554,2.959,6.554,6.554v54.117c0,3.593-2.959,6.554-6.554,6.554
	h-28.539V78.427L255.999,78.216L255.999,78.216z M255.999,366.982v67.013h28.539c3.593,0,6.554-2.959,6.554-6.554v-54.117
	c0-3.594-2.959-6.554-6.554-6.554h-28.539L255.999,366.982L255.999,366.982z"/>
<path style="fill:#FFD630;" d="M257.268,242.048c2.959,0,5.707,1.057,7.821,2.959l57.922-21.562l-53.906,33.189
	c-1.057,5.496-5.919,9.724-11.838,9.724c-6.765,0-12.05-5.496-12.05-12.05c0-0.423,0-0.845,0-1.269l-27.481-30.653l33.189,21.774
	c1.903-1.057,4.017-1.691,6.342-1.691v-0.422H257.268z"/>
<path style="fill:#FBFBFB;" d="M175.881,259.594v-7.821h16.489v7.821H175.881z M198.923,312.231l-5.285-5.919l12.261-10.993
	l5.285,5.919L198.923,312.231z M318.361,205.053l-5.285-5.919l-12.261,10.993l5.285,5.919L318.361,205.053z M251.983,175.458h7.821
	v16.489h-7.821V175.458z M251.983,335.907h7.821v-16.489h-7.821V335.907z M313.077,312.231l5.285-5.919l-12.261-10.993l-5.285,5.919
	L313.077,312.231z M193.638,205.053l5.285-5.919l12.261,10.993l-5.285,5.919L193.638,205.053z M336.118,259.594v-7.821H319.63v7.821
	H336.118z"/>
<path style="fill:#F2BC24;" d="M255.999,266.147v-24.099c0.423,0,0.845,0,1.057,0c2.959,0,5.707,1.057,7.821,2.959l57.922-21.562
	l-53.906,33.189c-1.057,5.496-5.919,9.724-11.838,9.724c-0.423,0-0.845,0-1.057,0v-0.211H255.999z"/>
</svg>